<svg width="362" height="230" viewBox="0 0 362 230" fill="none" xmlns="http://www.w3.org/2000/svg">
<path d="M292.25 47.39H288.691C281.961 28.675 267.742 13.609 249.445 5.80796C231.148 -1.99674 210.433 -1.82484 192.265 6.27671C174.101 14.3744 160.128 29.6747 153.706 48.4997C140.995 50.8122 129.14 56.5075 119.386 64.9877C109.636 73.4643 102.347 84.4137 98.2924 96.6827C96.1479 103.237 99.726 110.288 106.285 112.433C112.839 114.573 119.89 110.995 122.035 104.441C124.988 95.4678 130.593 87.6005 138.113 81.8815C145.632 76.1625 154.715 72.862 164.148 72.4167C169.882 72.1511 174.695 68.0105 175.816 62.3817C178.843 48.2337 188.265 36.2917 201.316 30.0497C214.367 23.8075 229.578 23.9755 242.492 30.4989C255.406 37.0184 264.562 49.1629 267.285 63.3739C267.886 66.7177 269.824 69.6747 272.652 71.5536C275.484 73.4364 278.956 74.0848 282.273 73.3505C295.101 70.1044 308.703 72.456 319.695 79.8193C330.687 87.1826 338.039 98.8663 339.918 111.96C341.797 125.058 338.027 138.335 329.551 148.495C321.07 158.651 308.68 164.733 295.457 165.225H217.41C210.515 165.225 204.926 170.811 204.926 177.705C204.926 184.599 210.516 190.189 217.41 190.189H296.16C297.262 190.197 298.359 190.06 299.426 189.783C323.406 186.631 344.168 171.572 354.614 149.756C365.059 127.94 363.766 102.322 351.184 81.6661C338.598 61.0101 316.426 48.1151 292.25 47.3891L292.25 47.39Z" fill="white"/>
<path d="M52.09 151.11H217.41C224.301 151.11 229.89 145.52 229.89 138.626C229.89 131.732 224.3 126.142 217.41 126.142H52.09C45.1994 126.142 39.61 131.732 39.61 138.626C39.61 145.52 45.1998 151.11 52.09 151.11V151.11Z" fill="white"/>
<path d="M241.04 204.89H75.72C68.8294 204.89 63.24 210.48 63.24 217.374C63.24 224.268 68.8298 229.858 75.72 229.858H241.04C247.931 229.858 253.52 224.268 253.52 217.374C253.52 210.48 247.93 204.89 241.04 204.89Z" fill="white"/>
<path d="M198.39 178C198.39 171.106 192.8 165.516 185.91 165.516H12.83C5.9355 165.516 0.350006 171.106 0.350006 178C0.350006 184.894 5.9359 190.484 12.83 190.484H186.08C192.908 190.386 198.389 184.828 198.389 178H198.39Z" fill="white"/>
</svg>
